/* XPM */
static char * clipboardwithcheck_16x16_xpm[] = {
"16 16 72 1",
" 	c #FF00FF",
".	c #656565",
"+	c #4987CA",
"@	c #3687D8",
"#	c #1876D4",
"$	c #096CD2",
"%	c #4E5F71",
"&	c #2E89E4",
"*	c #005CC4",
"=	c #0153B8",
"-	c #105DC0",
";	c #477BC7",
">	c #3973C6",
",	c #37485A",
"'	c #333333",
")	c #6597D5",
"!	c #9BB6D9",
"~	c #C1CEE8",
"{	c #E5EBF4",
"]	c #FDFEFE",
"^	c #96B9E5",
"/	c #29405A",
"(	c #ECEAD4",
"_	c #E2E2C9",
":	c #83BAF3",
"<	c #253653",
"[	c #F5F9FE",
"}	c #ECF9FF",
"|	c #D4D1AB",
"1	c #93BDF4",
"2	c #F0F6FE",
"3	c #EAF5FE",
"4	c #E3F1FE",
"5	c #CB9800",
"6	c #DBECF6",
"7	c #1A3866",
"8	c #78A8DC",
"9	c #9C9EAC",
"0	c #D15930",
"a	c #B1574C",
"b	c #EEF6F7",
"c	c #DCE4D9",
"d	c #CAEBFF",
"e	c #72ACE4",
"f	c #93CAF9",
"g	c #6A96BD",
"h	c #835C5B",
"i	c #D1E6FE",
"j	c #D9D7BC",
"k	c #819CA7",
"l	c #88B7EB",
"m	c #3B6795",
"n	c #C0DEFD",
"o	c #A7BDBA",
"p	c #759191",
"q	c #1A4981",
"r	c #B7C9E6",
"s	c #DBF0FF",
"t	c #CCD7CC",
"u	c #B7DBFD",
"v	c #5BC2FF",
"w	c #77B7F2",
"x	c #243B63",
"y	c #A9C0E5",
"z	c #D4EAFE",
"A	c #C3E2FE",
"B	c #B9E7FD",
"C	c #86D1FF",
"D	c #5DADFB",
"E	c #143877",
"F	c #383839",
"G	c #2A549A",
"                ",
"   ..+@#$%      ",
" &$**=-;>,'     ",
" *>)!~{]^/'     ",
" *]]]](_:<'     ",
" *]][}|_1<'     ",
" *2[3456^7'890a ",
" *{b4c5de+ffgh' ",
" *i5j|5klf+m''  ",
" *nc55op)q''    ",
" *rst5uvwx'     ",
" *yzAuBCDEF     ",
" *^sAu:+G<F     ",
" *8l;GxFFF      ",
" *;GxFFF        ",
" FFFF           "};
