/* XPM */
static char * greencheck_16x16_xpm[] = {
"16 16 15 1",
" 	c #FF00FF",
".	c #7BA58C",
"+	c #639C7B",
"@	c #217B31",
"#	c #42CE29",
"$	c #5AC639",
"%	c #6BE74A",
"&	c #109C08",
"*	c #4A9473",
"=	c #318C5A",
"-	c #108442",
";	c #006B00",
">	c #18AD10",
",	c #009400",
"'	c #42B531",
"                ",
"           ..+. ",
"          @#$%@ ",
"         @%%%&  ",
"        *#$#=   ",
"        -$#;    ",
"       -$#-     ",
" .-;  .&>,.     ",
" ;&>@ ;>&=      ",
" ;>,'@,,-.      ",
" .;,;,,;+       ",
"  -,,,,;        ",
"  +;;;;.        ",
"   ;;;-         ",
"    @=          ",
"                "};
