/* XPM */
static char * info3_16x16_xpm[] = {
"16 16 73 1",
" 	c #FF00FF",
".	c #7BA1CC",
"+	c #658DCE",
"@	c #5A86CF",
"#	c #7B9BCC",
"$	c #5A8ECF",
"%	c #5088D0",
"&	c #5098E0",
"*	c #50A0F0",
"=	c #5098F0",
"-	c #2080E0",
";	c #3080D0",
">	c #497FB2",
",	c #80B8F0",
"'	c #70B0F0",
")	c #60A8F0",
"!	c #2088F0",
"~	c #1078E0",
"{	c #1070D0",
"]	c #2D6FB1",
"^	c #A0C8F0",
"/	c #90C8F0",
"(	c #F0F8FF",
"_	c #FFFFFF",
":	c #1080F0",
"<	c #0070E0",
"[	c #1060B0",
"}	c #3B78A4",
"|	c #4088D0",
"1	c #90C0F0",
"2	c #E0F0FF",
"3	c #0068C0",
"4	c #1058B0",
"5	c #4098F0",
"6	c #3088F0",
"7	c #0078F0",
"8	c #0078E0",
"9	c #0070D0",
"0	c #0068D0",
"a	c #1058A0",
"b	c #658694",
"c	c #3090F0",
"d	c #D0E8FF",
"e	c #0060C0",
"f	c #1050A0",
"g	c #3B5C88",
"h	c #4B86CF",
"i	c #3098F0",
"j	c #1078F0",
"k	c #0058B0",
"l	c #105090",
"m	c #578DCE",
"n	c #C0E0FF",
"o	c #0060B0",
"p	c #104890",
"q	c #576A90",
"r	c #4078D0",
"s	c #1E5192",
"t	c #4B7ECF",
"u	c #1068C0",
"v	c #1070E0",
"w	c #C0D8F0",
"x	c #104080",
"y	c #4B6A84",
"z	c #3070C0",
"A	c #1060C0",
"B	c #103880",
"C	c #2D5588",
"D	c #3C6FB1",
"E	c #5A7589",
"F	c #4B779C",
"G	c #577190",
"H	c #5A7B94",
"                ",
"      .+@#      ",
"    $%&*=-;>    ",
"   $&,,')!~{]   ",
"  $&^/*(_:~<[}  ",
"  |,1**(2~~<34  ",
" #&')56778<90ab ",
" $**5cd__<<0efg ",
" h!i!j72(<9eklg ",
" m~:j7~n(<0ofpq ",
"  r<~~~^_0e4ps  ",
"  tu9v^__w4fxy  ",
"   z[3AAkfpBC   ",
"    DfllpxsE    ",
"      FgGH      ",
"                "};
