/* XPM */
static char * redexclamationpoint_16x16_xpm[] = {
"16 16 11 1",
" 	c #FF00FF",
".	c #8C0800",
"+	c #B54242",
"@	c #FF1800",
"#	c #FF8C00",
"$	c #FF6300",
"%	c #C63100",
"&	c #CE1000",
"*	c #FF3900",
"=	c #B5525A",
"-	c #BD7373",
"                ",
"       .+       ",
"      @#$.      ",
"      %#$&      ",
"      %#@&      ",
"      +$*%      ",
"      &@@=      ",
"      +*%-      ",
"      =%@=      ",
"       @+       ",
"       .+       ",
"                ",
"       .&       ",
"      %$$.      ",
"      &$@.      ",
"       +=       "};
