/* XPM */
static char * redx_16x16_xpm[] = {
"16 16 14 1",
" 	c #FF00FF",
".	c #AD6329",
"+	c #8C4242",
"@	c #A58484",
"#	c #8C0000",
"$	c #FF9C00",
"%	c #DE0000",
"&	c #FF0000",
"*	c #B55200",
"=	c #945A63",
"-	c #630000",
";	c #FF7300",
">	c #9C1800",
",	c #FF3100",
"                ",
"                ",
"   .+      @#+  ",
"  .$$%    @%&%  ",
"  +*$*%  =%&&-  ",
"   +*;*>@%,&#=  ",
"    +*,*&,&-    ",
"     +*,,&#@    ",
"     @&,&%-     ",
"    @#,,%&#+    ",
"   @%;&#+#&%+   ",
"  @%;;#= +%&#+  ",
"  +*,#    +#&#  ",
"  =#>=     +%#  ",
"                ",
"                "};
