/* XPM */
static char * timerdoc_16x16_xpm[] = {
"16 16 104 2",
"  	c #919EC4",
". 	c #FF00FF",
"+ 	c #87A9DC",
"@ 	c #EDEDED",
"# 	c #EBEBEB",
"$ 	c #E9E9E9",
"% 	c #E6E6E6",
"& 	c #E2E2E1",
"* 	c #2C8BDD",
"= 	c #8AADE0",
"- 	c #FEFEFE",
"; 	c #FFFFFF",
"> 	c #FCFDFF",
", 	c #F4FAFF",
"' 	c #F2F8FF",
") 	c #D4EBFF",
"! 	c #FDFDFD",
"~ 	c #E9F4FF",
"{ 	c #DCEEFF",
"] 	c #A2CFF2",
"^ 	c #83BBF4",
"/ 	c #898989",
"( 	c #85A4D8",
"_ 	c #CCE6FF",
": 	c #C7E3FF",
"< 	c #C1E0FF",
"[ 	c #BCC9D4",
"} 	c #9BA3AE",
"| 	c #707070",
"1 	c #82A0D3",
"2 	c #E5F2FF",
"3 	c #D1D7DE",
"4 	c #AEAEAE",
"5 	c #808084",
"6 	c #809BCF",
"7 	c #C2E1FF",
"8 	c #C9D9E9",
"9 	c #FFB366",
"0 	c #EDF0E6",
"a 	c #B3E2F4",
"b 	c #929CA1",
"c 	c #7E97CA",
"d 	c #F9FFFF",
"e 	c #D5FFFF",
"f 	c #6B7E80",
"g 	c #8BAAC6",
"h 	c #7F7F7F",
"i 	c #7A8FC2",
"j 	c #AED6FF",
"k 	c #C6CBD8",
"l 	c #F9FCFF",
"m 	c #E9FFFF",
"n 	c #DBFFFF",
"o 	c #6E8080",
"p 	c #5B6E80",
"q 	c #C3ECFF",
"r 	c #99B7BE",
"s 	c #C3C2C2",
"t 	c #F5FFFF",
"u 	c #393939",
"v 	c #535963",
"w 	c #BBE4FF",
"x 	c #C1715D",
"y 	c #9494A5",
"z 	c #7587BA",
"A 	c #AAD5FF",
"B 	c #A4D2FF",
"C 	c #ADCFDC",
"D 	c #D9F2E6",
"E 	c #CEFFFF",
"F 	c #8BA7AF",
"G 	c #93BCD9",
"H 	c #A6D9FF",
"I 	c #B8BCBD",
"J 	c #9898AF",
"K 	c #CEE1F4",
"L 	c #9BB6CA",
"M 	c #C1F4FF",
"N 	c #BBEDFF",
"O 	c #B4E6FF",
"P 	c #ABDCFF",
"Q 	c #EEF6FF",
"R 	c #91A4AE",
"S 	c #727283",
"T 	c #717EB1",
"U 	c #D2E8FF",
"V 	c #CEE6FF",
"W 	c #A6CBEF",
"X 	c #A1A4C2",
"Y 	c #4C4C4F",
"Z 	c #9C9CCF",
"` 	c #AEAEE1",
" .	c #8F8F8F",
"..	c #8A9DA5",
"+.	c #E4A38F",
"@.	c #989BB7",
"#.	c #656565",
"$.	c #6976B3",
"%.	c #6B6B6D",
"&.	c #8C8C9D",
"*.	c #84848C",
"=.	c #84849A",
"-.	c #535359",
";.	c #747474",
"                  . . . . . . . ",
"+ @ @ # $ % % & & * . . . . . . ",
"= - ; ; ; > , ' ) * * . . . . . ",
"+ ! ; ; > , ' ~ { ] ^ / . . . . ",
"( ! _ _ : : < [ } } } | . . . . ",
"1 ! 2 2 2 2 } } 3 [ } 4 5 . . . ",
"6 ! 7 7 7 } [ 8 ' 9 0 a b 5 . . ",
"c ! 2 2 [ } 8 ; ; d e f g / h . ",
"i ! j j } k l ; m n o p q r 5 5 ",
"i ! 2 2 } s 9 t n / u v w x y 5 ",
"z ! A B } C D e E F G H _ I J 5 ",
"z ! K K L 4 M M N O P P Q R S 5 ",
"T ! U V W 4 L q w k w ~ 3 X Y . ",
"T Z ` ` ` g  ...C +.3 R @.v #.. ",
"$.$.$.$.$.$.$.%.5 &.*.=.-.#.. . ",
". | | | | | | ;.-.-.-.-.h . . . "};
