/* XPM */
static char * timer_16x16_xpm[] = {
"16 16 200 2",
"  	c #FF00FF",
". 	c #C2C2C2",
"+ 	c #BEBDBD",
"@ 	c #B2B1B1",
"# 	c #A9A8A9",
"$ 	c #B8B7B8",
"% 	c #C5C4C4",
"& 	c #B3B3B4",
"* 	c #B7B7B8",
"= 	c #FFFFFF",
"- 	c #DEE0E1",
"; 	c #D6D7D9",
"> 	c #D0D0D1",
", 	c #C6CFD1",
"' 	c #C8CACC",
") 	c #A2A0A1",
"! 	c #D3D3D4",
"~ 	c #BBBBBB",
"{ 	c #E1E1E0",
"] 	c #E7EBEC",
"^ 	c #A1ACB3",
"/ 	c #9DC0D6",
"( 	c #BBD0DB",
"_ 	c #BDD0DC",
": 	c #9FC4D9",
"< 	c #91A1B2",
"[ 	c #ACB0B5",
"} 	c #A1A0A2",
"| 	c #A1A1A0",
"1 	c #CFCFCF",
"2 	c #BEC5CA",
"3 	c #A6BECC",
"4 	c #E7FAFF",
"5 	c #FFEBD3",
"6 	c #FFEBD4",
"7 	c #E1FFFF",
"8 	c #C1FBFF",
"9 	c #A4CFE3",
"0 	c #96A0A6",
"a 	c #939393",
"b 	c #8C8C90",
"c 	c #B7B8B7",
"d 	c #EAECF2",
"e 	c #C0D0D8",
"f 	c #FFFEFD",
"g 	c #FAFDFD",
"h 	c #F6FEFF",
"i 	c #E0FEFF",
"j 	c #CEFFFF",
"k 	c #A7CCCB",
"l 	c #75909C",
"m 	c #98BDD3",
"n 	c #949B9C",
"o 	c #7D7F8B",
"p 	c #BCC3C4",
"q 	c #EDEEEE",
"r 	c #AAB9CF",
"s 	c #FCFDFC",
"t 	c #FBFDFD",
"u 	c #EDFCFE",
"v 	c #DEFFFF",
"w 	c #D2FFFF",
"x 	c #A6CCCF",
"y 	c #464B4D",
"z 	c #516479",
"A 	c #BDE8FC",
"B 	c #95B2BA",
"C 	c #9498A9",
"D 	c #908D74",
"E 	c #B7B6B6",
"F 	c #DCDFE0",
"G 	c #B6E2FA",
"H 	c #F9FFFF",
"I 	c #EBFCFE",
"J 	c #E0FFFF",
"K 	c #D1F0F1",
"L 	c #9CB7B8",
"M 	c #4E595E",
"N 	c #637A8E",
"O 	c #A5D9FC",
"P 	c #E6FFFF",
"Q 	c #B8F1FF",
"R 	c #9096A3",
"S 	c #888991",
"T 	c #D1D1D1",
"U 	c #BABAB9",
"V 	c #D6DEDB",
"W 	c #F6F5E7",
"X 	c #F7FEFF",
"Y 	c #DAFEFF",
"Z 	c #C7E9EA",
"` 	c #9EAEAE",
" .	c #514D4C",
"..	c #2E2F34",
"+.	c #627582",
"@.	c #92BEDB",
"#.	c #DBFEFF",
"$.	c #DEBAB3",
"%.	c #7D7B7E",
"&.	c #9FA1B6",
"*.	c #C5C5C5",
"=.	c #AFB0B0",
"-.	c #C8DEDC",
";.	c #E5F4E6",
">.	c #E3FDFF",
",.	c #CDFCFF",
"'.	c #BFE8EA",
").	c #90A4A9",
"!.	c #677585",
"~.	c #5E7284",
"{.	c #5E6C76",
"].	c #7CA6CE",
"^.	c #E4FCFF",
"/.	c #EDBAB3",
"(.	c #787673",
"_.	c #ACACCB",
":.	c #A7A7A8",
"<.	c #C1C2C3",
"[.	c #ACE3FC",
"}.	c #C8FDFF",
"|.	c #CBFAFC",
"1.	c #C6F9FC",
"2.	c #CBFFFF",
"3.	c #B3E0EB",
"4.	c #9BC6E2",
"5.	c #ADDDF8",
"6.	c #A8D7F7",
"7.	c #9FD8FC",
"8.	c #F5FBFF",
"9.	c #C9F6FF",
"0.	c #999BAD",
"a.	c #9D9FB3",
"b.	c #A7A7A4",
"c.	c #CCCCCD",
"d.	c #A3CEE0",
"e.	c #BEF2FE",
"f.	c #C0F3FE",
"g.	c #BFF1FD",
"h.	c #BAEBFF",
"i.	c #B5E8FF",
"j.	c #AFE1FF",
"k.	c #9FD7FF",
"l.	c #D3EDFD",
"m.	c #A9CBC8",
"n.	c #BDBFEA",
"o.	c #878682",
"p.	c #AAAAAC",
"q.	c #AFBDC2",
"r.	c #B7EAFB",
"s.	c #C9FCFF",
"t.	c #C0F2FD",
"u.	c #AFE3FD",
"v.	c #ABE0FD",
"w.	c #A6DBFE",
"x.	c #9AD3FD",
"y.	c #BDE8FF",
"z.	c #FEFEFD",
"A.	c #E8FFFF",
"B.	c #9EAAB5",
"C.	c #BABCEF",
"D.	c #85868F",
"E.	c #A8A8A9",
"F.	c #9AAAB1",
"G.	c #B5E8FD",
"H.	c #C4F4FF",
"I.	c #D0F2FD",
"J.	c #C1E9FF",
"K.	c #CCF5FF",
"L.	c #E9F8FE",
"M.	c #8DA19F",
"N.	c #C3C3F1",
"O.	c #83838D",
"P.	c #868385",
"Q.	c #9DA1A6",
"R.	c #879EA6",
"S.	c #A9D0E5",
"T.	c #BDFBFF",
"U.	c #DAABA4",
"V.	c #EDADA3",
"W.	c #D9FFFF",
"X.	c #BDE5E2",
"Y.	c #8C9BA5",
"Z.	c #BBBCEA",
"`.	c #8B90BB",
" +	c #9A9481",
".+	c #8E9097",
"++	c #929398",
"@+	c #838E95",
"#+	c #858B8D",
"$+	c #87828A",
"%+	c #8C919A",
"&+	c #A8ACC8",
"*+	c #BDC0FB",
"=+	c #928E9F",
"-+	c #8F8E8B",
";+	c #9C9CA4",
">+	c #A7A7C1",
",+	c #AAABC8",
"'+	c #A1A0B8",
")+	c #A5A1A7",
"          . + @ # $ %           ",
"      & * = - ; > , ' ) !       ",
"    ~ { ] ^ / ( _ : < [ } |     ",
"    1 2 3 4 = 5 6 7 8 9 0 a b   ",
"  c d e = f g h i j k l m n o   ",
"p q r = s t u v w x y z A B C D ",
"E F G H t I J K L M N O P Q R S ",
"T U V W X Y Z `  ...+.@.#.$.%.&.",
"*.=.-.;.>.,.'.).!.~.{.].^./.(._.",
":.<.[.}.|.1.2.3.4.5.6.7.8.9.0.a.",
"b.c.d.2.e.f.g.h.i.j.k.l.= m.n.o.",
"  p.q.r.s.t.u.v.w.x.y.z.A.B.C.  ",
"  D.E.F.G.H.I.J.K.L.= Y M.N.O.  ",
"    P.Q.R.S.T.U.V.W.X.Y.Z.`.    ",
"       +.+++@+#+$+%+&+*+=+      ",
"          -+;+>+,+'+)+          "};
