/* XPM */
static char * yellowx_16x16_xpm[] = {
"16 16 14 1",
" 	c #FF00FF",
".	c #B58C21",
"+	c #CE9C42",
"@	c #BD9C63",
"#	c #B58408",
"$	c #FFF773",
"%	c #E7D66B",
"&	c #E7BD10",
"*	c #FFDE31",
"=	c #FFFF84",
"-	c #E7C631",
";	c #9C6B00",
">	c #FFD618",
",	c #E7BD18",
"                ",
"                ",
"  .+@      .#@  ",
"  +$%+    .&*#  ",
"  #=$-.  ;>*&@  ",
"   +=$-@.>*>.   ",
"    +$$-,*>;    ",
"     +$*$*.     ",
"     .%$*#@     ",
"    .*$*$*-@    ",
"   ;$$*.#-*-@   ",
"  .%=*.  ;*>&+  ",
"  #=%;    ;->#  ",
"  .+.      ;#+  ",
"                ",
"                "};
