/* XPM */
static char * yellowexclamationpoint_16x16_xpm[] = {
"16 16 14 1",
" 	c #FF00FF",
".	c #9C6300",
"+	c #B58421",
"@	c #BD9C63",
"#	c #FFDE31",
"$	c #EFC608",
"%	c #BD9439",
"&	c #FFF77B",
"*	c #CEA510",
"=	c #E7CE52",
"-	c #FFEF5A",
";	c #B58400",
">	c #CEAD39",
",	c #C6AD94",
"                ",
"      ..+       ",
"     @##$%      ",
"     %&##*      ",
"     @=-$;      ",
"     @=##%      ",
"      %-$       ",
"      *->       ",
"      %-;       ",
"      =#+       ",
"      ,.@       ",
"                ",
"       >;       ",
"      ;-#%      ",
"      ;>$+      ",
"       %,       "};
